/* XPM */
static const char * logo[] = {
"140 80 87 1",
" 	c None",
".	c #C62828",
"+	c #C62A28",
"@	c #65C628",
"#	c #C52C28",
"$	c #C43928",
"%	c #C14528",
"&	c #C43728",
"*	c #C53028",
"=	c #C24028",
"-	c #C24128",
";	c #C33A28",
">	c #C43428",
",	c #C52E28",
"'	c #9B9928",
")	c #C33C28",
"!	c #C04A28",
"~	c #C24328",
"{	c #66C528",
"]	c #8CA928",
"^	c #BA5F28",
"/	c #7AB928",
"(	c #68C528",
"_	c #85B028",
":	c #AE7B28",
"<	c #BF4E28",
"[	c #6AC328",
"}	c #67C528",
"|	c #74BD28",
"1	c #BB5D28",
"2	c #C43528",
"3	c #C53228",
"4	c #C04928",
"5	c #B66A28",
"6	c #AD7C28",
"7	c #B56D28",
"8	c #BE5128",
"9	c #66C628",
"0	c #76BC28",
"a	c #78BA28",
"b	c #95A028",
"c	c #9E9528",
"d	c #B17428",
"e	c #B86528",
"f	c #B27228",
"g	c #A68928",
"h	c #9B9828",
"i	c #969F28",
"j	c #979E28",
"k	c #A98328",
"l	c #B76728",
"m	c #C04B28",
"n	c #87AE28",
"o	c #9C9728",
"p	c #AD7D28",
"q	c #B96028",
"r	c #8FA728",
"s	c #A29028",
"t	c #B07728",
"u	c #C14628",
"v	c #A38E28",
"w	c #BD5528",
"x	c #AE7C28",
"y	c #A38D28",
"z	c #B37128",
"A	c #BB5C28",
"B	c #AC7E28",
"C	c #B37028",
"D	c #B46F28",
"E	c #BF4D28",
"F	c #BD5328",
"G	c #AA8228",
"H	c #B17528",
"I	c #BB5B28",
"J	c #A88628",
"K	c #BF4C28",
"L	c #A09228",
"M	c #C14428",
"N	c #989D28",
"O	c #94A128",
"P	c #79BA28",
"Q	c #8CAA28",
"R	c #B96328",
"S	c #77BB28",
"T	c #BF4F28",
"U	c #8DA928",
"V	c #BC5928",
"                                                                                                                                            ",
"                                                                                                                                            ",
"                                                                                                                                            ",
"                                                                                                                                            ",
"                                                                                                                                            ",
"                                                                                                                                            ",
"                                                                                                                                            ",
"                                                                                                                                            ",
"                                                                                               .                        .                   ",
"                                                                                               ..                     ...                   ",
"                                                                                               ....                 .....                   ",
"                                                                                               ......              .....                    ",
"                                                                                                ......           .......                    ",
"                                                                                                ........        ........                    ",
"                                                                                                .........     ..........                    ",
"                                                                                                ...........  ..........                     ",
"                                                                                                 ......................                     ",
"                                                                                                 ......................                     ",
"                                                                                                 ......................                     ",
"                                                                                                 .....................                      ",
"                                                                                                  ....................                      ",
"                                                                                                  ....................                      ",
"                                                                                                  ....................                      ",
"                                                                                                  ....................                      ",
"                                                                                                 +.....................                     ",
"                                                                                                .........................                   ",
"                                                                        @                     .#++........................                  ",
"                                                                                             .$%&*+#+......................                 ",
"                                                                                            *.=-;>.#,.......................                ",
"                                                                                  @        '&.)!~;+*#..+......................              ",
"                                                      @   @  @@                   @       {]^.$->..;#.,>#+.....................             ",
"                                                        @     @                    @    /{(_:*.)&*.>+$<<)*......................            ",
"                                       @                                              @[@@}|'123>&#245678;+......................           ",
"                                                                 @                    9@0|9@abcdeefghijklm,................                 ",
"                                      @                                              @     @@@@       nopq2.......                          ",
"                                                                                                       rstu......                           ",
"                                                                @                             @        h'vw......                           ",
"                                                                                     @    @@            xyz-.....                           ",
"                                                                                     @                  &ABC!2#.                            ",
"                                                         @                                   @  @       3.Dg5E$#                            ",
"                                                                                                         .FGHI%                             ",
"                                                              @@                                         )!JyDK                             ",
"                                                      @    @  @                   @                       ~LbtM                             ",
"                                                                                                 @        ^NOD                              ",
"                                                         @                                                kPQR                              ",
"                                                                                                           ScT                              ",
"                                                                     @       @@@                          @UV                               ",
"                                                  @@  @               @@                               @    K                               ",
"                          @@                      @ @@@                                          @                                          ",
"                         @@                      @@     @                                                                                   ",
"                                               @         @                                                                                  ",
"                                    @     @@@@@                                                                                             ",
"                                           @                                                                                                ",
"                                   @       @                 @                                                                              ",
"                             @  @ @@       @                 @                                  @ @                                         ",
"                             @@   @                                     @@  @      @                @   @                                   ",
"                                                                                                    @                                       ",
"                                                                              @           @@                                                ",
"                                                                              @           @          @                                      ",
"                                               @             @                                                                              ",
"                                 @            @              @    @ @                                                                       ",
"                       @        @                                 @                                  @                                      ",
"                     @@                                                                              @                                      ",
"                               @                                 @                                  @@ @                                    ",
"                      @           @                   @@         @                                      @                                   ",
"                      @ @          @  @               @@                 @                                                                  ",
"                       @                               @                @               @                                                   ",
"                       @                               @        @      @@                   @               @                               ",
"                       @                                       @    @   @                    @             @                                ",
"                       @                               @          @      @          @                      @                                ",
"                                                       @          @                @                        @                               ",
"                                                        @@@   @@@                @@@                        @@                              ",
"                                                        @       @             @ @                                                           ",
"                      @                 @@             @                    @     @                        @                                ",
"                       @               @ @                                 @      @                                                         ",
"                                       @ @                                                                                                  ",
"                         @             @ @@@                                      @@ @@@                                                    ",
"                          @                @@                @                     @   @                                                    ",
"                          @@@       @@      @     @@      @ @           @@                                                                  ",
"                              @            @  @@@        @@ @                                          @                                    "};
